<?xml version="1.0" encoding="utf-8"?>
<!-- Generator: Adobe Illustrator 15.0.0, SVG Export Plug-In . SVG Version: 6.00 Build 0)  -->
<!DOCTYPE svg PUBLIC "-//W3C//DTD SVG 1.1//EN" "http://www.w3.org/Graphics/SVG/1.1/DTD/svg11.dtd">
<svg version="1.1" id="Layer_1" xmlns="http://www.w3.org/2000/svg" xmlns:xlink="http://www.w3.org/1999/xlink" x="0px" y="0px"
	 width="100px" height="40.075px" viewBox="0 0 100 40.075" enable-background="new 0 0 100 40.075" xml:space="preserve">
<path fill="#FFFFFF" d="M1.245,26.791L0.844,1.408h3.294c-0.005,0.389-0.022,1.71-0.049,3.971L4,11.455
	c-0.057,3.493-0.164,6.497-0.331,9.009h0.066c1.84-6.719,3.769-13.072,5.788-19.056h2.63l-0.271,18.955h0.065
	c0.745-2.8,1.643-5.981,2.698-9.542l1.421-4.809c0.376-1.276,0.824-2.813,1.338-4.604h3.298l-8.484,25.382H9.523v-5.793
	c0-0.335,0.006-0.951,0.016-1.859c0.017-1.084,0.025-1.949,0.032-2.598c0.022-3.813,0.095-6.693,0.221-8.637H9.729
	c-0.615,2.583-1.46,5.566-2.531,8.964c-0.427,1.365-0.939,2.958-1.537,4.788l-1.656,5.135H1.245z"/>
<polygon fill="#FFFFFF" points="22.755,1.408 31.816,1.408 31.378,4.302 25.719,4.302 24.405,12.317 29.529,12.317 29.053,15.21 
	23.942,15.21 22.624,23.833 28.282,23.833 27.812,26.791 18.753,26.791 "/>
<path fill="#FFFFFF" d="M30.532,22.518c0.976,0.841,2.02,1.304,3.134,1.38c1-0.033,1.842-0.428,2.522-1.188
	c0.679-0.763,1.027-1.703,1.044-2.822c0.016-0.991-0.2-1.867-0.651-2.63c-0.356-0.592-1.028-1.477-2.014-2.656
	c-0.925-1.108-1.578-2.007-1.949-2.704c-0.45-0.834-0.674-1.828-0.674-2.986c0-3.164,1.163-5.471,3.485-6.919
	C36.495,1.329,37.646,1,38.884,1c1.19,0,2.325,0.291,3.403,0.877l-0.575,3.469c-0.774-0.741-1.684-1.11-2.728-1.11
	c-0.96,0-1.774,0.37-2.444,1.11c-0.598,0.664-0.983,1.493-1.159,2.491c0,0.79,0.285,1.644,0.855,2.564
	c0.132,0.22,0.678,0.958,1.637,2.22c1.842,2.425,2.763,4.526,2.763,6.296c0,3.102-1.131,5.454-3.395,7.052
	c-1.098,0.773-2.358,1.159-3.783,1.159c-1.453,0-2.606-0.389-3.461-1.175L30.532,22.518z"/>
<polygon fill="#FFFFFF" points="44.204,1.408 55.383,1.408 54.947,4.302 51.109,4.302 47.577,26.791 44.138,26.791 47.772,4.302 
	43.767,4.302 "/>
<polygon fill="#FFFFFF" points="57.23,1.408 66.355,1.408 65.922,4.302 60.202,4.302 58.89,12.317 64.071,12.317 63.593,15.21 
	58.417,15.21 56.558,26.791 53.228,26.791 "/>
<polygon fill="#FFFFFF" points="72.083,1.408 68.074,26.791 64.741,26.791 68.748,1.408 "/>
<path fill="#FFFFFF" d="M72.247,26.791l4.004-25.382h4.655c1.618,0,2.807,0.337,3.556,1.013c0.79,0.707,1.187,1.86,1.187,3.459
	c0,2.911-0.628,5.217-1.875,6.922c-0.697,0.948-1.61,1.496-2.738,1.634l2.762,12.354h-3.538l-2.625-12.418h-0.065l-1.993,12.418
	H72.247z M77.906,12.653c2.761,0,4.14-1.995,4.14-5.992c0-1.001-0.229-1.671-0.688-2.004c-0.377-0.279-1.087-0.421-2.132-0.421
	L77.906,12.653z"/>
<polygon fill="#FFFFFF" points="90.258,1.408 99.317,1.408 98.879,4.302 93.222,4.302 91.907,12.317 97.033,12.317 96.555,15.21 
	91.443,15.21 90.127,23.833 95.782,23.833 95.313,26.791 86.256,26.791 "/>
<path fill="#FFFFFF" d="M26.096,39.116l1.409-8.939h1.639c0.572,0,0.99,0.119,1.254,0.355c0.279,0.246,0.419,0.656,0.419,1.22
	c0,1.022-0.221,1.836-0.66,2.439c-0.247,0.33-0.567,0.524-0.964,0.573l0.972,4.353h-1.247l-0.924-4.375H27.97l-0.702,4.375H26.096z
	 M28.088,34.137c0.972,0,1.46-0.705,1.46-2.113c0-0.353-0.081-0.588-0.244-0.705c-0.132-0.098-0.382-0.148-0.751-0.148
	L28.088,34.137z"/>
<polygon fill="#FFFFFF" points="34.812,30.176 38.004,30.176 37.852,31.196 35.856,31.196 35.395,34.019 37.2,34.019 37.03,35.037 
	35.231,35.037 34.766,38.075 36.759,38.075 36.594,39.116 33.402,39.116 "/>
<path fill="#FFFFFF" d="M44.765,30.317l-0.167,1.092c-0.234-0.175-0.487-0.265-0.756-0.265c-0.589,0-1.083,0.334-1.484,0.999
	c-0.265,0.446-0.5,1.235-0.706,2.365c-0.114,0.64-0.168,1.163-0.159,1.573c0.013,0.576,0.112,1.069,0.295,1.482
	c0.163,0.366,0.504,0.561,1.03,0.582c0.291-0.025,0.537-0.099,0.738-0.213l-0.168,1.044c-0.272,0.173-0.615,0.258-1.031,0.258
	c-0.377,0-0.729-0.085-1.06-0.255c-0.341-0.175-0.587-0.4-0.73-0.669c-0.22-0.408-0.334-1.049-0.346-1.918
	c-0.008-0.588,0.067-1.299,0.23-2.132c0.313-1.66,0.788-2.798,1.42-3.41c0.545-0.528,1.154-0.792,1.831-0.792
	C44.084,30.058,44.439,30.144,44.765,30.317"/>
<path fill="#FFFFFF" d="M46.899,36.567c0.11-1.164,0.223-2.047,0.338-2.64c0.19-0.975,0.469-1.81,0.84-2.51
	c0.381-0.717,0.9-1.146,1.561-1.292c0.144-0.03,0.34-0.044,0.593-0.044c0.618,0,1.082,0.231,1.388,0.696
	c0.261,0.398,0.391,0.925,0.391,1.577c0,0.05-0.004,0.141-0.011,0.273c-0.117,1.994-0.405,3.551-0.87,4.665
	c-0.542,1.295-1.357,1.942-2.452,1.942c-0.798,0-1.331-0.392-1.604-1.181c-0.124-0.355-0.186-0.744-0.186-1.167
	C46.886,36.757,46.891,36.648,46.899,36.567 M48.191,36.542c-0.003,0.097-0.01,0.226-0.024,0.391
	c0.024,0.795,0.297,1.19,0.818,1.189c0.353-0.004,0.656-0.307,0.903-0.901c0.249-0.593,0.441-1.272,0.568-2.037
	c0.138-0.808,0.225-1.5,0.261-2.069c0.003-0.063,0.007-0.173,0.012-0.328c0.006-0.147,0.011-0.253,0.011-0.326
	c0-0.395-0.036-0.683-0.109-0.861c-0.116-0.288-0.34-0.43-0.672-0.43c-0.563,0-1.002,0.683-1.311,2.048
	c-0.135,0.577-0.233,1.142-0.299,1.695C48.267,35.6,48.214,36.146,48.191,36.542"/>
<path fill="#FFFFFF" d="M54.681,39.116l1.409-8.939h1.64c0.572,0,0.989,0.119,1.254,0.355c0.278,0.246,0.418,0.656,0.418,1.22
	c0,1.022-0.221,1.836-0.66,2.439c-0.245,0.33-0.566,0.524-0.966,0.573l0.974,4.353h-1.246l-0.925-4.375h-0.024l-0.701,4.375H54.681z
	 M56.675,34.137c0.972,0,1.457-0.705,1.457-2.113c0-0.353-0.081-0.588-0.243-0.705c-0.132-0.098-0.383-0.148-0.75-0.148
	L56.675,34.137z"/>
<path fill="#FFFFFF" d="M63.398,30.176h1.873c0.598,0,1.061,0.187,1.391,0.563c0.339,0.39,0.51,0.956,0.51,1.701v0.272
	c0,1.351-0.2,2.645-0.594,3.887c-0.433,1.355-1.091,2.14-1.974,2.345c-0.495,0.115-1.034,0.172-1.621,0.172h-0.997L63.398,30.176z
	 M64.441,31.171L63.33,38.1c1.042,0,1.718-0.503,2.037-1.508c0.18-0.567,0.342-1.398,0.484-2.498
	c0.064-0.509,0.099-0.941,0.099-1.297c0-0.486-0.129-0.874-0.388-1.167C65.294,31.323,64.92,31.171,64.441,31.171"/>
<path fill="#FFFFFF" d="M69.923,37.613c0.345,0.296,0.712,0.458,1.104,0.487c0.353-0.013,0.65-0.153,0.89-0.422
	s0.361-0.599,0.366-0.993c0.008-0.351-0.067-0.658-0.227-0.927c-0.126-0.207-0.363-0.52-0.711-0.936
	c-0.326-0.391-0.557-0.708-0.687-0.951c-0.158-0.294-0.237-0.646-0.237-1.052c0-1.117,0.411-1.929,1.229-2.438
	c0.372-0.233,0.777-0.352,1.216-0.352c0.419,0,0.817,0.105,1.198,0.31l-0.203,1.223c-0.271-0.261-0.592-0.391-0.959-0.391
	c-0.341,0-0.627,0.129-0.864,0.391c-0.21,0.233-0.345,0.526-0.406,0.878c0,0.279,0.1,0.578,0.301,0.901
	c0.046,0.079,0.238,0.34,0.577,0.783c0.649,0.855,0.974,1.596,0.974,2.219c0,1.091-0.4,1.92-1.197,2.483
	c-0.386,0.272-0.832,0.407-1.332,0.407c-0.512,0-0.918-0.138-1.221-0.412L69.923,37.613z"/>
</svg>
