<?xml version="1.0" encoding="utf-8"?>
<!-- Generator: Adobe Illustrator 15.0.0, SVG Export Plug-In . SVG Version: 6.00 Build 0)  -->
<!DOCTYPE svg PUBLIC "-//W3C//DTD SVG 1.1//EN" "http://www.w3.org/Graphics/SVG/1.1/DTD/svg11.dtd">
<svg version="1.1" id="Layer_1" xmlns="http://www.w3.org/2000/svg" xmlns:xlink="http://www.w3.org/1999/xlink" x="0px" y="0px"
	 width="100px" height="100px" viewBox="0 0 100 100" enable-background="new 0 0 100 100" xml:space="preserve">
<polygon fill="#FFFFFF" points="53.476,22.218 40.458,47.867 35.136,37.415 41.387,24.402 40.97,24.176 34.848,36.87 29.27,47.867 
	16.254,22.218 42.285,22.218 "/>
<path fill="#FFFFFF" d="M69.051,47.867h8.365h1.157h8.367l-6.637-9.17L69.852,24.456l0.388-0.258l8.941,12.159
	c0.878-0.106,1.696-0.362,2.455-0.77c0.758-0.405,1.42-0.917,1.985-1.537c0.567-0.619,1.011-1.337,1.331-2.147
	c0.321-0.813,0.481-1.678,0.481-2.597c0-0.984-0.188-1.901-0.562-2.757c-0.374-0.854-0.882-1.603-1.521-2.243
	c-0.642-0.642-1.392-1.148-2.244-1.524c-0.855-0.371-1.774-0.562-2.758-0.562h-9.298v0.077l-0.025-0.077l-5.248,10.317
	l-7.445,15.332"/>
<polyline fill="#FFFFFF" points="53.88,47.867 62.563,30.311 57.199,27.725 57.363,27.385 62.729,29.972 63.835,27.732 
	57.111,24.491 57.275,24.15 64.002,27.394 66.556,22.218 55.906,22.218 42.891,47.867 "/>
<path fill="#FFFFFF" d="M16.65,73.405l-0.287-18.164h2.358c-0.004,0.278-0.017,1.224-0.035,2.842l-0.064,4.348
	c-0.041,2.5-0.118,4.649-0.236,6.447h0.047c1.317-4.809,2.697-9.354,4.142-13.637h1.882l-0.194,13.564h0.047
	c0.533-2.004,1.176-4.28,1.931-6.828l1.017-3.441c0.27-0.913,0.59-2.013,0.958-3.295h2.36l-6.071,18.164h-1.929V69.26
	c0-0.24,0.004-0.681,0.011-1.331c0.012-0.775,0.018-1.395,0.023-1.858c0.016-2.729,0.068-4.79,0.158-6.181h-0.046
	c-0.44,1.848-1.045,3.983-1.812,6.415c-0.305,0.977-0.672,2.116-1.099,3.426l-1.186,3.675H16.65z"/>
<polygon fill="#FFFFFF" points="32.044,55.241 38.527,55.241 38.214,57.313 34.164,57.313 33.224,63.048 36.891,63.048 
	36.55,65.118 32.893,65.118 31.949,71.289 35.998,71.289 35.662,73.405 29.179,73.405 "/>
<path fill="#FFFFFF" d="M37.609,70.348c0.698,0.602,1.445,0.933,2.242,0.987c0.716-0.023,1.318-0.307,1.805-0.851
	c0.486-0.546,0.735-1.219,0.748-2.02c0.012-0.709-0.143-1.336-0.466-1.882c-0.255-0.424-0.736-1.057-1.441-1.9
	c-0.662-0.793-1.129-1.437-1.395-1.935c-0.322-0.597-0.482-1.309-0.482-2.137c0-2.265,0.832-3.915,2.494-4.951
	c0.762-0.476,1.585-0.711,2.472-0.711c0.851,0,1.663,0.208,2.435,0.628l-0.411,2.482c-0.554-0.53-1.205-0.795-1.953-0.795
	c-0.687,0-1.269,0.265-1.749,0.795c-0.428,0.475-0.704,1.068-0.829,1.782c0,0.565,0.204,1.177,0.612,1.835
	c0.095,0.157,0.485,0.686,1.171,1.589c1.318,1.735,1.977,3.238,1.977,4.505c0,2.22-0.81,3.903-2.43,5.047
	c-0.786,0.554-1.688,0.829-2.708,0.829c-1.039,0-1.865-0.278-2.477-0.841L37.609,70.348z"/>
<polygon fill="#FFFFFF" points="47.392,55.241 55.393,55.241 55.08,57.313 52.334,57.313 49.806,73.405 47.345,73.405 
	49.945,57.313 47.08,57.313 "/>
<polygon fill="#FFFFFF" points="56.714,55.241 63.244,55.241 62.934,57.313 58.841,57.313 57.901,63.048 61.609,63.048 
	61.268,65.118 57.563,65.118 56.232,73.405 53.85,73.405 "/>
<polygon fill="#FFFFFF" points="67.343,55.241 64.474,73.405 62.09,73.405 64.956,55.241 "/>
<path fill="#FFFFFF" d="M67.46,73.405l2.866-18.164h3.33c1.159,0,2.009,0.241,2.546,0.725c0.564,0.506,0.848,1.331,0.848,2.476
	c0,2.083-0.448,3.733-1.341,4.953c-0.499,0.679-1.153,1.07-1.959,1.17l1.976,8.841h-2.532l-1.878-8.887h-0.047l-1.427,8.887H67.46z
	 M71.51,63.288c1.976,0,2.963-1.428,2.963-4.288c0-0.716-0.164-1.195-0.493-1.434c-0.27-0.2-0.777-0.302-1.525-0.302L71.51,63.288z"
	/>
<polygon fill="#FFFFFF" points="80.349,55.241 86.832,55.241 86.519,57.313 82.47,57.313 81.529,63.048 85.197,63.048 
	84.855,65.118 81.197,65.118 80.255,71.289 84.302,71.289 83.967,73.405 77.484,73.405 "/>
<path fill="#FFFFFF" d="M34.434,82.226l1.008-6.397h1.173c0.409,0,0.708,0.085,0.897,0.254c0.199,0.176,0.299,0.47,0.299,0.873
	c0,0.731-0.158,1.313-0.472,1.745c-0.177,0.236-0.406,0.375-0.69,0.41l0.695,3.115h-0.892l-0.661-3.131h-0.017l-0.502,3.131H34.434z
	 M35.859,78.662c0.696,0,1.045-0.504,1.045-1.512c0-0.252-0.058-0.421-0.175-0.504c-0.095-0.07-0.273-0.106-0.537-0.106
	L35.859,78.662z"/>
<polygon fill="#FFFFFF" points="40.671,75.828 42.956,75.828 42.847,76.558 41.418,76.558 41.088,78.578 42.38,78.578 
	42.259,79.307 40.971,79.307 40.638,81.48 42.064,81.48 41.946,82.226 39.663,82.226 "/>
<path fill="#FFFFFF" d="M47.794,75.929l-0.12,0.781c-0.168-0.125-0.349-0.189-0.542-0.189c-0.421,0-0.775,0.239-1.062,0.715
	c-0.189,0.319-0.358,0.884-0.505,1.692c-0.082,0.458-0.121,0.832-0.114,1.126c0.01,0.412,0.081,0.765,0.211,1.061
	c0.116,0.262,0.361,0.401,0.738,0.416c0.208-0.019,0.384-0.07,0.527-0.152l-0.12,0.747c-0.195,0.124-0.44,0.185-0.738,0.185
	c-0.269,0-0.521-0.061-0.758-0.183c-0.245-0.125-0.42-0.286-0.523-0.479c-0.157-0.292-0.239-0.751-0.248-1.373
	c-0.005-0.421,0.048-0.93,0.165-1.525c0.224-1.188,0.564-2.002,1.016-2.44c0.39-0.378,0.826-0.566,1.31-0.566
	C47.307,75.743,47.561,75.805,47.794,75.929"/>
<path fill="#FFFFFF" d="M49.321,80.401c0.079-0.833,0.16-1.465,0.242-1.89c0.136-0.697,0.335-1.295,0.602-1.796
	c0.272-0.514,0.644-0.82,1.117-0.925c0.103-0.021,0.243-0.031,0.424-0.031c0.442,0,0.774,0.165,0.993,0.498
	c0.188,0.285,0.28,0.662,0.28,1.129c0,0.035-0.003,0.101-0.008,0.195c-0.084,1.427-0.291,2.541-0.623,3.338
	c-0.387,0.927-0.971,1.39-1.754,1.39c-0.571,0-0.953-0.28-1.148-0.845c-0.088-0.254-0.133-0.532-0.133-0.835
	C49.312,80.537,49.315,80.46,49.321,80.401 M50.246,80.384c-0.002,0.069-0.007,0.162-0.017,0.28
	c0.017,0.568,0.213,0.852,0.585,0.851c0.253-0.003,0.469-0.22,0.646-0.645c0.179-0.425,0.314-0.911,0.406-1.458
	c0.099-0.578,0.161-1.073,0.187-1.48c0.002-0.045,0.005-0.124,0.009-0.234c0.005-0.105,0.008-0.182,0.008-0.233
	c0-0.283-0.025-0.489-0.078-0.616c-0.083-0.206-0.243-0.308-0.48-0.308c-0.403,0-0.717,0.488-0.939,1.466
	c-0.096,0.413-0.167,0.817-0.214,1.213C50.3,79.709,50.262,80.1,50.246,80.384"/>
<path fill="#FFFFFF" d="M54.89,82.226l1.009-6.397h1.173c0.409,0,0.708,0.085,0.897,0.254c0.199,0.176,0.299,0.47,0.299,0.873
	c0,0.731-0.157,1.313-0.473,1.745c-0.175,0.236-0.405,0.375-0.69,0.41l0.696,3.115h-0.892l-0.662-3.131H56.23l-0.502,3.131H54.89z
	 M56.316,78.662c0.695,0,1.043-0.504,1.043-1.512c0-0.252-0.058-0.421-0.174-0.504c-0.095-0.07-0.274-0.106-0.537-0.106
	L56.316,78.662z"/>
<path fill="#FFFFFF" d="M61.128,75.828h1.341c0.428,0,0.759,0.134,0.994,0.402c0.243,0.279,0.365,0.685,0.365,1.218v0.194
	c0,0.967-0.143,1.893-0.425,2.781c-0.31,0.97-0.78,1.531-1.412,1.679c-0.354,0.082-0.74,0.123-1.16,0.123h-0.714L61.128,75.828z
	 M61.875,76.54l-0.796,4.958c0.745,0,1.229-0.36,1.458-1.079c0.129-0.406,0.244-1.001,0.346-1.787
	c0.047-0.364,0.071-0.674,0.071-0.929c0-0.348-0.093-0.625-0.277-0.835C62.484,76.648,62.217,76.54,61.875,76.54"/>
<path fill="#FFFFFF" d="M65.797,81.149c0.246,0.212,0.509,0.328,0.79,0.349c0.252-0.009,0.465-0.109,0.637-0.302
	c0.171-0.192,0.259-0.429,0.262-0.711c0.006-0.251-0.049-0.471-0.162-0.663c-0.09-0.148-0.26-0.372-0.509-0.67
	c-0.233-0.279-0.397-0.507-0.491-0.681c-0.113-0.21-0.17-0.462-0.17-0.753c0-0.799,0.294-1.38,0.88-1.744
	c0.267-0.167,0.557-0.252,0.87-0.252c0.3,0,0.585,0.075,0.857,0.222l-0.146,0.875c-0.194-0.187-0.424-0.279-0.687-0.279
	c-0.243,0-0.448,0.093-0.617,0.279c-0.15,0.167-0.247,0.377-0.292,0.629c0,0.199,0.072,0.413,0.216,0.645
	c0.033,0.057,0.171,0.243,0.413,0.561c0.464,0.611,0.696,1.142,0.696,1.588c0,0.78-0.286,1.374-0.856,1.777
	c-0.276,0.194-0.595,0.291-0.953,0.291c-0.366,0-0.657-0.099-0.874-0.295L65.797,81.149z"/>
<rect x="12.782" y="51.031" fill="#FFFFFF" width="77.63" height="0.536"/>
<path fill="#FFFFFF" d="M50,100C22.429,100-0.001,77.57-0.001,50c0-27.571,22.43-50,50.001-50c27.57,0,50,22.429,50,50
	C100.001,77.57,77.57,100,50,100 M50,2.236C23.662,2.236,2.234,23.662,2.234,50c0,26.336,21.428,47.763,47.766,47.763
	c26.337,0,47.764-21.427,47.764-47.763C97.765,23.662,76.338,2.236,50,2.236"/>
</svg>
